<?xml version="1.0" encoding="utf-8"?>
<!-- Generator: Adobe Illustrator 16.0.3, SVG Export Plug-In . SVG Version: 6.00 Build 0)  -->
<!DOCTYPE svg PUBLIC "-//W3C//DTD SVG 1.1//EN" "http://www.w3.org/Graphics/SVG/1.1/DTD/svg11.dtd">
<svg version="1.1" id="Capa_1" xmlns="http://www.w3.org/2000/svg" xmlns:xlink="http://www.w3.org/1999/xlink" x="0px" y="0px"
	 width="283.465px" height="283.465px" viewBox="0 0 283.465 283.465" enable-background="new 0 0 283.465 283.465"
	 xml:space="preserve">
<g>
	<path fill-rule="evenodd" clip-rule="evenodd" d="M174.313,193.436c-3.223,3.18-14.179,7.063-19.816,8.298
		c-16.024,3.509-32.153,0.196-45.513-8.055c-4.714-2.911-11.31-8.672-14.808-13.022c-13.708-17.048-18.687-43.05-7.925-64.917
		c5.953-12.096,15.295-22.614,27.646-28.498c37.545-17.884,77.46,2.504,87.135,39.819c2.113,8.15,2.409,17.283,0.894,25.651
		c-1.107,6.117-4.254,16.607-7.745,20.249c-1.585-0.85-2.216-1.806-3.646-3.237c-4.465-4.469-20.688-21.205-22.921-22.675
		c0.152-2.468,1.487-5.215,2.015-7.953c0.567-2.946,0.791-5.943,0.667-9.024c-0.587-14.514-9.894-27.81-23.542-33.2
		c-9.664-3.816-30.873-4.237-26.328,4.712c1.336,2.63,18.176,17.864,18.649,19.378c0.293,3.784-1.12,11.248-2.031,14.899
		c-2.268,0.807-6.014,1.401-8.758,1.732c-4.159,0.5-5.715,1.346-8.273-1.017l-15.878-15.797c-7.063-7.848-10.561,6.361-8.037,18.612
		c2.416,11.731,9.496,19.81,17.57,24.651c10.729,6.434,21.037,6.527,33.619,2.298L174.313,193.436L174.313,193.436z M57.522,79.685
		c0.457,4.878,10.041,8.399,9.518,22.09c-0.573,15.018-12.048,21.434-24.538,22.436c-5.564,0.446-6.34,3.238-6.791,8.751
		c-0.408,4.998-0.485,10.078-0.179,15.105c0.341,5.61,0.229,8.809,5.069,10.334c4.818,1.52,7.374,0.235,12.922,2.915
		c15.105,7.295,15.996,27.524,7.253,36.468c-6.241,6.385-4.236,7.68,1.038,14.261c1.501,1.872,2.271,2.414,4.017,4.144l7.87,7.491
		c6.588,6.069,10.638-1.438,14.872-3.855c11.523-6.578,25.319-3.154,32.216,8.125c6.779,11.088-1.908,18.635,11.475,19.758
		c5.027,0.423,10.148,0.539,15.236,0.253c13.528-0.762,9.83-3.901,11.418-12.032c0.395-2.023,1.217-4.207,1.951-5.736
		c5.571-11.611,19.34-16.422,31.824-10.307c5.561,2.725,8.958,10.014,15.224,5.051l12.249-11.267
		c14.879-16.197-4.712-10.708-3.974-31.773c0.345-9.832,5.858-15.729,11.883-19.363c11.15-6.729,18.278,2.281,19.46-11.8
		c0.417-4.968,0.49-10.122,0.175-15.17c-0.349-5.572-0.256-8.841-5.018-10.3c-5.258-1.612-14.343-0.114-21.515-10.178
		c-6.279-8.813-5.387-22.362,1.294-29.188c1.596-1.629,2.651-2.059,3.381-4.315c1.636-5.055-4.821-10.521-8.435-14.09
		c-2.895-2.859-8.673-9.879-13.103-9.761c-5.553,0.147-7.928,9.395-22.135,9.397c-9.842,0.002-16.17-5.595-19.72-11.395
		c-5.984-9.779,1.373-18.706-11.471-19.771c-4.994-0.414-10.119-0.526-15.186-0.237c-13.606,0.775-9.9,3.896-11.486,12.017
		c-2.852,14.608-18.624,23.456-33.76,16.054c-3.548-1.735-7.015-5.929-9.372-6.501c-4.308-1.044-6.407,2.103-10.055,4.93
		L59.574,74.186C58.5,75.416,57.29,77.215,57.522,79.685z"/>
</g>
</svg>
